<svg version="1.1" id="Layer_1" xmlns="http://www.w3.org/2000/svg" xmlns:xlink="http://www.w3.org/1999/xlink" x="0px" y="0px"
	 width="100%" viewBox="0 0 540 538" enable-background="new 0 0 540 538" xml:space="preserve">
<path fill="#F1EFE7" opacity="1.000000" stroke="none" 
	d="
M258.000000,539.000000 
	C172.019821,539.000000 86.539627,539.000000 1.029721,539.000000 
	C1.029721,359.728058 1.029721,180.456085 1.029721,1.092060 
	C180.896866,1.092060 360.793793,1.092060 540.845337,1.092060 
	C540.845337,180.333237 540.845337,359.666595 540.845337,539.000000 
	C446.789398,539.000000 352.644684,539.000000 258.000000,539.000000 
M309.926056,315.500000 
	C309.926056,224.278625 309.926056,133.057251 309.926056,41.836067 
	C277.856720,41.836067 246.465485,41.836067 215.034027,41.836067 
	C215.034027,195.913483 215.034027,349.645844 215.034027,503.579041 
	C246.684235,503.579041 278.081970,503.579041 309.926056,503.579041 
	C309.926056,441.050568 309.926056,378.775299 309.926056,315.500000 
M324.933716,462.402924 
	C332.144287,496.607178 365.059692,518.201233 398.664551,510.773743 
	C431.618042,503.490265 452.810822,470.418915 445.703979,437.368683 
	C438.516266,403.942230 406.523895,383.413727 372.085175,390.129761 
	C340.495728,396.290161 318.873322,428.971954 324.933716,462.402924 
z"/>
<path fill="#010101" opacity="1.000000" stroke="none" 
	d="
M309.926056,316.000000 
	C309.926056,378.775299 309.926056,441.050568 309.926056,503.579041 
	C278.081970,503.579041 246.684235,503.579041 215.034027,503.579041 
	C215.034027,349.645844 215.034027,195.913483 215.034027,41.836067 
	C246.465485,41.836067 277.856720,41.836067 309.926056,41.836067 
	C309.926056,133.057251 309.926056,224.278625 309.926056,316.000000 
z"/>
<path fill="#010101" opacity="1.000000" stroke="none" 
	d="
M324.887024,461.971069 
	C318.873322,428.971954 340.495728,396.290161 372.085175,390.129761 
	C406.523895,383.413727 438.516266,403.942230 445.703979,437.368683 
	C452.810822,470.418915 431.618042,503.490265 398.664551,510.773743 
	C365.059692,518.201233 332.144287,496.607178 324.887024,461.971069 
z"/>
</svg>